<?xml version="1.0" encoding="UTF-8" standalone="no"?>
<!-- Created with Inkscape (http://www.inkscape.org/) -->

<svg
   version="1.1"
   id="svg1"
   width="300"
   height="300"
   viewBox="0 0 300 300"
   sodipodi:docname="bookshelf.svg"
   inkscape:version="1.4 (86a8ad7, 2024-10-11)"
   xmlns:inkscape="http://www.inkscape.org/namespaces/inkscape"
   xmlns:sodipodi="http://sodipodi.sourceforge.net/DTD/sodipodi-0.dtd"
   xmlns="http://www.w3.org/2000/svg"
   xmlns:svg="http://www.w3.org/2000/svg">
  <defs
     id="defs1" />
  <sodipodi:namedview
     id="namedview1"
     pagecolor="#ffffff"
     bordercolor="#000000"
     borderopacity="0.25"
     inkscape:showpageshadow="2"
     inkscape:pageopacity="0.0"
     inkscape:pagecheckerboard="0"
     inkscape:deskcolor="#d1d1d1"
     inkscape:zoom="2.0152544"
     inkscape:cx="85.845241"
     inkscape:cy="188.31369"
     inkscape:window-width="1920"
     inkscape:window-height="1057"
     inkscape:window-x="-8"
     inkscape:window-y="-8"
     inkscape:window-maximized="1"
     inkscape:current-layer="g17" />
  <g
     inkscape:groupmode="layer"
     inkscape:label="Image"
     id="g1">
    <g
       id="g17"
       transform="translate(-1.9848645,1.9848592)">
      <path
         style="fill:#b18f58"
         d="M 127.21929,258.00024 C 124.16042,256.47789 125,255.32317 125,250.29825 v -5.3389 l 5.6886,2.63276 c 3.93046,1.81907 2.3114,1.62537 2.3114,6.42821 0,5.49039 -1.12231,6.29835 -5.78071,3.97992 z M 28.75,196.93191 C 25.181171,195.04786 25,194.71083 25,189.95579 v -4.99644 l 5.578947,2.28188 C 34.587599,188.88083 33,189.21748 33,194.02032 c 0,2.73883 -0.1125,4.95979 -0.25,4.93548 -0.1375,-0.0243 -1.9375,-0.93505 -4,-2.02389 z M 93.688597,149.76524 C 90.12289,147.88284 92,146.70767 92,141.97611 c 0,-2.73686 -0.09728,-5.67786 0.159055,-5.67786 0.25634,0 2.363358,1.4601 4.307018,2.38696 3.390567,1.61685 6.911117,1.28678 6.911117,6.38596 0,2.92314 -3.48969,5.90894 -3.62719,5.88463 -0.1375,-0.0243 -3.998903,-0.10172 -6.061403,-1.19056 z m 51.864123,-33.48607 -20.94727,-10.48601 -4.07044,1.97757 -4.07044,1.97757 -12.4476,-6.23979 -12.44761,-6.239799 3.930849,-2.016647 3.930849,-2.016646 4.282152,2.080428 4.28215,2.080429 4.25232,-2.07736 4.25232,-2.077359 -3.75,-1.80599 C 110.6875,90.442271 109,89.331264 109,88.966662 c 0,-0.364602 1.73187,-1.443878 3.8486,-2.39839 l 3.8486,-1.735477 12.37086,6.201321 12.37085,6.20132 -4.24999,2.168182 -4.24999,2.168182 4.28054,2.07756 4.28053,2.07756 4.28959,-2.07965 4.28959,-2.07965 16.5742,8.26907 c 9.1158,4.54799 17.72628,8.28639 17.52619,8.46837 -0.20008,0.18198 -5.27957,2.26193 -9.67957,4.46129 l -8,3.99884 z m 33.95381,-8.52799 -3.97941,-2.04156 4.06286,-1.96775 c 4.04455,-1.95889 4.08032,-1.95879 7.93968,0.0212 l 3.87683,1.98893 -3.96027,2.02038 -3.96028,2.02038 z m 11.51664,-10.677471 -7.47683,-3.827311 -4.27085,2.074938 -4.27085,2.074939 -4.25232,-2.07736 -4.25232,-2.077359 3.75,-1.80599 c 2.0625,-0.993295 3.75,-2.104302 3.75,-2.468904 0,-0.364602 -1.71849,-1.437845 -3.81887,-2.384984 -3.62135,-1.633 -4.00927,-1.631276 -7.5,0.03334 C 160.65651,87.580491 159,88.653734 159,89 c 0,0.346266 1.6875,1.442271 3.75,2.435566 l 3.75,1.80599 -4.05586,1.982207 -4.05586,1.982207 -16.7913,-8.407297 -16.7913,-8.407298 4.17212,-1.881366 4.17213,-1.881366 8.45248,4.192001 8.45248,4.192001 4.19201,-2.138604 4.19201,-2.138605 -12.45174,-6.241868 -12.45174,-6.241867 -4.30045,2.089319 -4.30045,2.089319 -12.49245,-6.222645 -12.492448,-6.222646 -3.960428,2.02046 -3.278133,2.640729 -17.446386,-9.013942 -16.764089,-8.393673 12.519391,-6.236065 12.519391,-6.236066 62.449282,31.227839 62.44928,31.22784 -3.46897,1.846999 c -13.54738,7.213091 -5.35579,2.401671 -13.9458,-1.99546 z m 29.53323,-10.230772 -11.9436,-6.053353 -4.31639,2.097067 -4.3164,2.097067 -20.49,-10.23053 c -11.26951,-5.626791 -21.23433,-9.791475 -21.23433,-10.126675 0,-0.335201 2.48273,-2.106676 4.60744,-3.064791 3.74766,-1.689956 3.63512,-3.360931 7.34872,-0.810061 L 175,64.040648 l 4.20518,-2.145324 4.20518,-2.145324 -4.28613,-2.186622 -4.28613,-2.186622 4.17452,-1.882449 4.17453,-1.882449 25.13215,12.554377 26.9304,13.234201 -5.72317,1.333784 -3.92493,2.013608 3.94217,2.022456 c 3.93903,2.020843 3.94528,2.020871 7.83608,0.03593 3.75514,-1.915732 3.50524,-2.889356 7.23071,-1.209407 2.12471,0.958115 4.38944,2.989917 4.38944,3.335779 0,0.687968 -14.57853,8.099548 -15.76654,8.015557 -0.4034,-0.02852 -6.10808,-2.775864 -12.67706,-6.105209 z M 62.155046,82.642735 49.810091,76.389386 l 4.186995,-1.888072 4.186995,-1.888072 -8.601459,-4.32214 -8.601458,-4.32214 -3.9536,2.016976 c -3.777977,1.92738 -4.110716,1.942052 -7.490582,0.330307 -1.94534,-0.927668 -4.715493,-1.831741 -4.715493,-2.160671 0,-0.328931 6.547639,-3.376904 13.109907,-6.621652 l 11.931396,-5.899543 4.149555,1.871189 4.149555,1.871188 -4.286133,2.186622 -4.286133,2.186622 4.171727,2.128257 4.171728,2.128256 4.336178,-2.106678 4.336178,-2.106677 20.930741,10.474877 20.930742,10.474877 -8.38101,4.213886 -8.381002,4.213887 -3.852459,-1.737217 C 85.733607,86.477999 84,85.39794 84,85.033338 84,84.668736 85.6875,83.55914 87.75,82.567571 L 91.5,80.764717 83.275738,76.67288 75.051476,72.581043 70.775738,74.663405 66.5,76.745766 l 7.75,3.846402 c 4.2625,2.115522 7.75,4.114379 7.75,4.441905 0,0.502 -6.63852,4.069165 -7.283927,3.91397 -0.11884,-0.02858 -5.771302,-2.865965 -12.561027,-6.305308 z M 232.52888,67.83035 l -15.97112,-8.064088 4.21491,-2.150288 4.21491,-2.150288 -16.51778,-8.240927 -16.51778,-8.240927 -4.18993,2.13754 -4.18992,2.137541 -28.78609,-14.365668 C 138.95374,20.992128 126,14.281402 126,13.980521 c 0,-0.300882 5.41214,-3.223117 12.02697,-6.4938575 L 150.05394,1.5398631 212.02697,32.51348 c 34.08517,17.03549 63.66163,31.84471 63.66163,32.158892 0,0.314181 -3.28024,0.716205 -5.22558,1.643873 -3.38062,1.612104 -3.7431,2.164928 -7.41228,0.01577 L 259,63.959352 l -4.20324,2.144336 -4.20325,2.144335 3.89781,1.999695 4.42413,2.109345 -3.97089,1.724728 c -1.96872,0.855101 -4.22921,2.618962 -5.05421,2.612986 -0.825,-0.006 -8.57735,-4.429179 -17.36147,-8.864427 z m -48.71729,-41.425081 -8.26847,-4.157306 -4.31159,2.094732 -4.31159,2.094731 8.26847,4.157305 8.26847,4.157306 4.31159,-2.094732 4.31159,-2.094731 z M 129.25,49.704447 C 118.1125,44.10458 106.67544,39.526728 106.67544,39.209805 c 0,-0.316922 4.01206,-1.646343 6.07456,-2.632631 l 3.75,-1.79325 -8.266,-4.161169 -8.266005,-4.161168 8.284155,-4.108522 8.28416,-4.108523 8.32303,4.184736 8.32303,4.184736 -4.17214,1.881371 -4.17213,1.881371 4.2985,2.192931 4.2985,2.192932 4.08632,-1.985289 4.08633,-1.985289 16.79328,8.408292 16.79329,8.408292 -4.14542,1.869325 c -4.08347,1.841386 -4.20822,1.838879 -8.34716,-0.167772 L 158.5,47.27308 l -4.28053,2.07756 -4.28054,2.077559 4.23572,2.160901 4.23571,2.1609 -4.16534,2.125 c -2.29094,1.16875 -4.29577,2.099355 -4.45518,2.068012 -0.15941,-0.03134 -9.40234,-4.638698 -20.53984,-10.238565 z m 16.21607,-4.389659 C 147.40973,44.387921 149,43.346266 149,43 c 0,-0.346266 -1.59164,-1.388577 -3.53698,-2.316245 -3.39567,-1.619279 -3.70326,-1.601843 -7.69858,0.436419 l -4.1616,2.123088 3.44858,1.836453 c 4.28081,2.279636 4.13566,2.275581 8.41465,0.235073 z"
         id="path31"
         sodipodi:nodetypes="sscssssscsssssssssssccccccccccccssscccccccccsssccccssccccscccccsssssscccccccccccccccccccccccccssccccsssscccccccccccsssssscscccccsssscccccccccccccssscccccssssscccccccssscsssscccccssscccccccccssscccccccccccccccsscccccssssssscss" />
      <path
         style="fill:#9b804a"
         d="m 108.25,277.70689 -17.039474,-8.70476 0.438597,-4.45721 C 91.905727,261.9372 92.230293,260 92.511761,260 c 0.281469,0 7.706469,3.60265 16.499999,8.00589 L 125,276.01178 v 4.99411 c 0,2.74676 -0.1125,4.96831 -0.25,4.93678 -0.1375,-0.0315 -7.5625,-3.73763 -16.5,-8.23578 z m 35.78947,-11.8627 c -3.56571,-1.8824 -2.25877,-1.58827 -2.25877,-6.31983 0,-2.73686 0.42903,-5.52436 0.68537,-5.52436 0.25634,0 3.85512,0.6343 5.79878,1.56116 3.39057,1.61685 1.73515,2.02487 1.73515,7.12405 0,2.92314 0.3104,6.1564 0.1729,5.63587 -0.0357,-0.135 -4.07093,-1.38805 -6.13343,-2.47689 z M 49.75,248.44227 24.298246,235.72894 25,230.9922 v -4.9999 L 50,238.5 75,251.0077 v 4.99615 c 0,2.74788 -0.1125,4.97195 -0.25,4.94237 -0.1375,-0.0296 -11.3875,-5.65636 -25,-12.50395 z m -30,-45.51036 c -3.565707,-1.8824 -3.75,-2.22424 -3.75,-6.9558 0,-2.73686 0.155208,-6.2919 0.452119,-6.2919 0.296911,0 2.40963,2.22494 4.587719,3.33611 3.812897,1.9452 5.232092,2.38095 5.232092,7.17544 0,2.73883 -1.60943,4.78435 -2.02193,4.76004 -0.4125,-0.0243 -2.4375,-0.93505 -4.5,-2.02389 z m 92,-4.9919 -11.75,-5.95629 -0.657895,-4.99186 C 98.983366,184.26988 100.23192,182 100.51538,182 c 0.28345,0 5.90845,2.70347 12.5,6.00771 L 125,194.01542 v 4.99229 c 0,2.74576 0.80285,5.93387 0.39035,5.90535 -0.4125,-0.0285 -7.17785,-3.6971 -13.64035,-6.97305 z m 31.32456,-14.09582 C 139.50573,181.96014 142,181.71083 142,176.95579 v -4.99644 l 6.01754,2.34767 c 4.03482,1.57413 1.98246,1.91046 1.98246,6.7133 0,2.73883 -0.1125,4.95979 -0.25,4.93548 -0.1375,-0.0243 -4.61294,-1.02277 -6.67544,-2.11161 z M 57.25,170.70281 33,158.51912 v -5.26341 -5.26341 L 58,160.5 83,173.0077 v 4.99615 c 0,2.74788 0.495833,5.32149 0.08333,5.29027 C 82.670833,183.26292 70.5875,177.40383 57.25,170.70281 Z m 80.25,-50.45082 -21,-10.52047 4.05471,-1.96819 4.05471,-1.96819 20.91798,10.4685 20.91799,10.46849 -3.9727,2.02017 -3.97269,2.02016 z m -117.75,0.67992 c -3.563696,-1.88134 -3.959455,2.193 -3.75,-6.9428 l 0.153509,-6.69558 6.920608,4.10481 c 4.212,2.49825 1.925883,2.10172 1.925883,6.80093 0,2.6404 0.408114,5.46066 -0.0044,5.43635 -0.4125,-0.0243 -3.183114,-1.61487 -5.245614,-2.70371 z m 167.8008,-9.10219 -3.9492,-2.08189 3.8984,-2 3.8984,-2 -3.87477,-1.98788 c -3.86723,-1.98401 -3.88276,-1.984 -7.97076,0.002 l -4.09599,1.98999 -8.44004,-4.24357 -8.44004,-4.243574 3.95855,-2.030862 3.95856,-2.030861 -3.74695,-1.786799 C 160.68613,90.433635 159,89.331264 159,88.966662 c 0,-0.364602 1.71849,-1.437845 3.81887,-2.384984 3.62135,-1.633 4.00927,-1.631276 7.5,0.03334 C 172.34349,87.580491 174,88.653734 174,89 c 0,0.346266 -1.6875,1.442271 -3.75,2.435566 l -3.75,1.80599 4.25,2.076235 4.25,2.076234 4.25,-2.062047 4.25,-2.062046 8.22364,4.074815 8.22363,4.074813 4.27637,-2.073238 4.27636,-2.073242 4.28053,2.07756 4.28054,2.07756 -4.24809,2.16721 -4.24808,2.16721 -4.28013,-2.07945 -4.28013,-2.07944 -4.25232,2.07735 -4.25232,2.07736 3.75,1.80599 c 2.0625,0.9933 5.10965,2.0893 5.10965,2.43557 0,0.52087 -7.37313,4.43946 -8.06983,4.29695 -0.11884,-0.0243 -2.56696,-1.32219 -4.73902,-2.46723 z m -50.36378,-8.23431 -4.24809,-2.16721 4.31299,-2.09541 4.31298,-2.095409 4.24808,2.16721 4.24809,2.167209 -4.31299,2.09541 -4.31298,2.09541 z m -38.161853,-10.520695 -7.474832,-3.826306 8.41311,-4.230029 8.413105,-4.230029 4.06173,1.985046 4.06172,1.985047 -3.75,1.80599 C 110.6875,87.557729 109,88.653734 109,89 c 0,0.346266 1.68388,1.432561 3.74195,2.413989 l 3.74196,1.784413 -4.19371,2.911515 c -4.38771,3.046192 -4.67113,1.363946 -13.265033,-3.035202 z M 212.25,91.212363 c -6.1875,-3.119295 -12.23684,-5.993668 -12.23684,-6.333889 0,-0.340222 2.71871,-1.35569 4.83544,-2.310202 l 3.76088,-1.888986 12.45182,6.351441 13.41672,5.934775 -4.51532,2.106912 c -1.95526,0.91235 -4.04998,3.064543 -4.87498,3.055644 -0.825,-0.0089 -6.65022,-3.796401 -12.83772,-6.915695 z m -133,0.04226 C 75.231679,89.254766 73.082961,89.011565 76.891085,87.434188 78.541085,86.750736 82,85.460632 82,85.097965 82,84.735298 78.5125,82.70769 74.25,80.592168 L 66.5,76.745766 70.775738,74.663405 75.051476,72.581043 83.275738,76.67288 91.5,80.764717 87.75,82.567571 C 85.6875,83.55914 84,84.653734 84,85 c 0,0.346266 1.683879,1.432561 3.741953,2.413989 l 3.741954,1.784413 -3.802089,2.72726 C 83.80432,94.707013 83.377251,93.308685 79.25,91.254619 Z m 62.07433,-10.498994 -8.17568,-4.126407 -4.1515,1.872069 -4.15151,1.872069 -16.17093,-7.477517 C 99.798665,68.791515 93,64.284553 93,63.960185 c 0,-0.324368 1.580128,-1.343271 3.511395,-2.264228 l 3.511395,-1.674468 12.45587,6.204425 12.45587,6.204425 4.30045,-2.089319 4.30045,-2.089319 12.45174,6.241867 12.45174,6.241868 -4.17962,2.132282 c -2.29879,1.172755 -4.31004,2.105739 -4.46945,2.073298 -0.15941,-0.03244 -3.96889,-1.915868 -8.46551,-4.185391 z m 88.1822,1.995555 -3.97941,-2.04156 4.06286,-1.967752 c 4.04455,-1.958887 4.08032,-1.958791 7.93968,0.02118 l 3.87683,1.988931 -3.96027,2.020381 -3.96028,2.020381 z M 41.25,72.222075 c -3.790608,-2.362523 -10.475399,-4.113466 -10.475399,-4.441431 0,-0.327965 4.928565,-2.09365 6.858591,-3.014015 3.505546,-1.671678 3.286647,-0.735701 11.87739,3.468765 l 9.112575,4.45986 -3.375498,1.734512 C 50.801258,76.714566 50.876975,78.222155 41.25,72.222075 Z m 216.78584,-0.141985 -7.46416,-3.820931 4.20512,-2.145288 4.20511,-2.145289 8.21804,4.131952 9.27068,4.000373 -5.71777,3.311139 c -4.58636,2.65594 -4.14305,1.057091 -12.71702,-3.331956 z M 53.513562,61.810614 49.527123,59.70962 53.763562,57.657797 58,55.605975 l 4.240706,2.053889 4.240706,2.05389 -4.200868,2.143123 c -4.95191,2.526276 -3.875049,2.531959 -8.766982,-0.04626 z m 116.999998,0 -3.98644,-2.100994 4.23644,-2.051823 4.29847,-2.361957 4.17868,2.364024 4.2407,2.05389 -4.20087,2.143123 c -4.95191,2.526276 -3.59593,3.307295 -8.48786,0.729076 z m 29.49932,-10.304162 -16.45563,-8.239931 4.20699,-2.146244 4.20698,-2.146245 16.56008,8.291523 16.56007,8.291523 -4.31143,2.094652 -4.31142,2.094653 z m -45.79572,2.144088 -4.59298,-2.386515 4.56053,-1.858255 4.25039,-2.168389 4.23186,2.055997 c 4.16001,2.021087 4.30146,2.024613 8.33071,0.207671 4.01265,-1.809453 3.62615,-2.79933 7.60765,-0.870982 l 4.62527,2.962205 -4.1153,1.855738 c -3.99152,1.799926 -3.89596,2.638166 -7.82473,0.866543 -3.96607,-1.788447 -4.47937,-2.621395 -8.59115,-0.625777 l -4.38549,2.441319 z m -17.16574,-8.570825 -3.44858,-1.836453 4.1616,-2.123088 c 3.99532,-2.038262 4.30291,-2.055698 7.69858,-0.436419 C 147.40836,41.611423 149,42.653734 149,43 c 0,0.67551 -6.59261,4.027818 -7.78393,3.958084 -0.39384,-0.02305 -2.26793,-0.868319 -4.16465,-1.878369 z M 99.5,34.811751 l -8.394737,-3.781252 4.670475,-2.378237 4.495042,-2.290517 7.98965,4.288723 8.69141,4.244864 -4.67731,1.964614 c -2.38797,1.00302 -4.32528,2.117559 -4.48469,2.090065 C 107.63043,38.922517 103.9,37.0603 99.5,34.811751 Z m 29.66407,-2.228049 -4.32597,-2.206946 4.12921,-1.862016 c 4.0621,-1.831753 2.98508,-3.460295 8.54096,-0.182378 l 4.63103,2.732269 -4.34655,1.994588 -4.30271,1.731429 z m 50.02295,0.01171 -4.86213,-2.16721 4.92703,-2.095409 4.31298,-2.095409 4.24808,2.16721 4.24809,2.16721 -4.31299,2.095409 -4.31298,2.095409 z"
         id="path30"
         sodipodi:nodetypes="scssscssssssssssscccccssssssssssscssscssssscssssscccccssscccccccccsscssssscccscccccccssssscccccccccccccccccsssscscccccccssccccssscssssscccsssscsscccccssscsssccccssscccccccsssccsssccccsssscssscccccssccccccsscccccccsscccccccccccsccssscsssccsssssssscccccsssccsscccccccccccccc" />
      <path
         style="fill:#907243"
         d="M 136.75,291.94001 125,285.98372 v -5.00302 -5.00302 l 7.9778,4.01116 c 4.38779,2.20614 8.21279,4.01116 8.5,4.01116 0.28721,0 0.5222,-4.50915 0.5222,-10.02032 v -10.02033 l 4,2.04065 4,2.04065 v 14.97967 c 0,8.23883 -0.3375,14.95635 -0.75,14.92783 -0.4125,-0.0285 -6.0375,-2.73219 -12.5,-6.00814 z m -54,-27.0021 -7.75,-3.96212 v -4.9806 -4.98061 l 8.5,4.21557 9.245614,4.43486 L 92,264.22286 c -0.42418,2.59296 -0.03048,4.93008 -0.442982,4.90259 -0.4125,-0.0275 -4.544518,-2.00838 -8.807018,-4.18754 z m 62.5,-19.68329 -3.25,-1.61747 v -15.32587 -15.32586 l -8.5,-4.21557 -8.5,-4.21556 v -5.26986 -5.26985 l 8.5,4.21557 8.5,4.21556 v 5.25682 c 0,5.12618 0.0994,5.30753 4,7.29747 l 4,2.04065 v 14.97967 c 0,8.23883 -0.3375,14.9509 -0.75,14.91573 -0.4125,-0.0352 -2.2125,-0.79182 -4,-1.68143 z m -125,-11.51367 C 16.136251,231.67442 16,231.452 16,226.80299 c 0,-2.64165 0.199067,-6.51352 0.495978,-6.51352 0.296911,0 3.988578,2.61968 6.166667,3.73085 3.812897,1.9452 2.337355,2.20551 2.337355,7 0,2.73883 -0.1125,4.95176 -0.25,4.91765 -0.1375,-0.0341 -2.1625,-1.02278 -4.5,-2.19702 z m -0.5,-20.80904 C 16.186304,211.05057 16,210.70565 16,205.98911 l 0.219298,-6.45435 7.263158,3.8968 C 27.797767,205.74679 25,205.50006 25,210.19927 c 0,2.6404 -0.3375,4.78084 -0.75,4.75653 -0.4125,-0.0243 -2.4375,-0.93505 -4.5,-2.02389 z M 145.95175,195.96515 C 139.42797,194.09192 142,192.32317 142,187.29825 v -5.3389 l 5.35965,2.21609 c 4.00237,1.65488 3.24509,2.08026 2.64035,6.84488 -0.65789,5.18337 0.9531,6.38091 -4.04825,4.94483 z M 91.25,187.71878 83,183.55553 v -5.27048 -5.27047 l 8.5,4.21557 8.5,4.21556 v 5.27715 c 0,2.90243 -0.1125,5.2506 -0.25,5.21816 -0.1375,-0.0325 -3.9625,-1.93245 -8.5,-4.22224 z m -71,-5.05311 -4.25,-2.0597 v -15.32331 -15.32331 l 3.960162,2.02033 C 22.138251,153.09085 24.163251,154 24.460162,154 24.757073,154 25,151.74415 25,148.987 c 0,-4.95077 -0.05586,-5.04013 -4.5,-7.19926 L 16,139.60147 v -10.28774 -10.28774 l 4.5,2.18627 4.5,2.18627 v 10.28041 10.28041 l 5.333578,2.13369 C 34.354743,147.70171 33,148.21748 33,153.02032 c 0,5.40052 1.369079,7.06861 -2.377193,4.92705 -1.375,-0.78602 -4.448586,-2.89245 -4.846761,-2.91193 -0.398175,-0.0195 -0.02704,6.86094 -0.473684,15.02461 l 0.22834,15.30127 z m 125,-19.41105 -3.25,-1.61747 v -15.3389 -15.3389 l 4,2.04065 4,2.04065 v 14.97967 c 0,8.23883 -0.3375,14.9509 -0.75,14.91573 -0.4125,-0.0352 -2.2125,-0.79182 -4,-1.68143 z m 50.26356,-55.44401 -3.98644,-2.10099 4.23644,-2.05182 4.23644,-2.05183 4.24071,2.05389 4.2407,2.05389 -4.20087,2.14313 c -4.95191,2.52627 -3.87505,2.53196 -8.76698,-0.0463 z M 79.01283,99.506432 66.561088,93.264564 l 4.186001,-2.135539 4.186002,-2.135538 4.35788,2.117221 4.35788,2.117222 3.918545,-2.010334 3.918546,-2.010335 3.960273,2.020381 3.960274,2.020381 -3.904366,2.00306 -3.904367,2.00306 4.231655,2.158829 4.231659,2.158828 -4.298251,2.08825 -4.298246,2.08825 z M 20.25,100.74095 16,98.605975 V 83.315984 68.025994 l 4.5,2.186269 4.5,2.186268 v 15.300735 c 0,8.415404 0.172588,15.426324 0.03509,15.392214 -0.1375,-0.0341 -2.447588,-1.17629 -4.785088,-2.35053 z m 116.80142,-5.661235 -3.44858,-1.836453 4.1616,-2.123088 c 3.99532,-2.038262 4.30291,-2.428505 7.69858,-0.809226 1.94534,0.927668 4.63347,2.408575 4.63347,2.754841 0,0.67551 -7.36015,4.444485 -8.55147,4.374751 -0.39384,-0.02305 -2.59688,-1.350775 -4.4936,-2.360825 z M 197.1804,92.24705 c -1.7875,-0.88961 -5.45233,-2.938776 -5.45233,-3.287124 0,-0.348349 3.04965,-2.340934 4.99499,-3.268602 3.39567,-1.619279 3.76529,-1.105627 7.76061,0.932635 l 3.91349,2.619303 -3.44858,1.836453 c -4.16555,2.218256 -3.64586,3.218945 -7.76818,1.167335 z m 57.00662,-13.651641 -4.24809,-2.16721 4.31299,-2.095409 4.31298,-2.095409 4.24808,2.16721 4.24809,2.16721 -4.31299,2.095409 -4.31298,2.095409 z M 82.753785,68.842344 c -3.9875,-2.012478 -9.110808,-4.500629 -9.110808,-4.84693 0,-0.346301 3.92212,-2.218344 6.125754,-2.915312 l 3.830758,-1.975539 9.343969,4.415111 c 4.255118,2.010583 7.359112,4.434981 7.359112,4.762507 0,0.661235 -7.397689,4.43452 -8.528255,4.340677 -0.39384,-0.03269 -5.03303,-1.768037 -9.02053,-3.780514 z M 271.25,70.254619 c -1.7875,-0.88961 -4.9386,-2.275292 -4.9386,-2.62364 0,-0.348349 3.28024,-1.019556 5.22558,-1.947224 3.39567,-1.619279 3.70326,-1.601843 7.69858,0.436419 l 4.1616,2.123088 -3.49244,2.406628 c -3.88606,2.677872 -4.5324,1.656339 -8.65472,-0.395271 z m -117,-8 c -1.7875,-0.88961 -5.23486,-1.864717 -5.23486,-2.20481 0,-0.340093 5.56168,-2.393261 9.93334,-4.524692 l 7.94849,-3.875328 4.1427,1.868098 4.1427,1.868099 -8.34119,4.256784 c -4.58765,2.341231 -7.97692,4.963914 -8.25192,4.956362 -0.275,-0.0076 -2.55176,-1.454903 -4.33926,-2.344513 z m -34.07484,-9.110914 -3.32483,-1.772464 4.55729,-2.758548 c 3.71127,-2.246449 3.7125,-0.862273 7.66722,0.921053 l 4.55729,2.144513 -3.23711,1.684744 c -1.83823,0.956699 -4.52616,2.386499 -5.35116,2.386499 -0.825,0 -3.04004,-1.630942 -4.8687,-2.605797 z M 149.5,34.811751 l -8,-4.08827 4.27574,-2.071219 4.27574,-2.071219 8.20895,4.069425 8.20895,4.069425 -4.19485,2.140053 c -2.30717,1.17703 -4.32528,2.117559 -4.48469,2.090065 C 157.63043,38.922517 153.9,37.0603 149.5,34.811751 Z m 20.72502,-6.642264 -3.27498,-1.746683 4.30945,-2.093693 4.30945,-2.093693 5.0943,2.093717 3.86624,2.620033 -3.44457,1.834377 c -4.27239,2.275228 -5.73904,2.537255 -9.71954,0.0877 z m -50.1736,-8.089772 -3.44858,-1.836453 4.1616,-2.123088 c 3.99532,-2.038262 4.47835,-2.713593 7.87402,-1.094314 1.94534,0.927668 4.76505,2.759453 4.76505,3.105719 0,0.67551 -7.6891,4.597993 -8.88042,4.528259 -0.39384,-0.02305 -2.57495,-1.570073 -4.47167,-2.580123 z"
         id="path29"
         sodipodi:nodetypes="scccssscccsssscccccsssscccccccccsscsssssssssssscsssssscsssscccccscsccccsssscccccccsssssccscccccsssccccccssccccccccccccccccccscccccssssssssssscsscsscscccccccssscsssssssscssssscccscssssscsssscccccssscsccccsscscsssssc" />
      <path
         style="fill:#8f7235"
         d="M 20.25,223.74095 C 16.054662,221.63343 16,221.53794 16,216.31598 l 0.219298,-6.78122 6.561404,3.63364 C 27.149985,215.58806 25,215.40747 25,220.69927 c 0,2.9154 -0.1125,5.27281 -0.25,5.2387 -0.1375,-0.0341 -2.1625,-1.02278 -4.5,-2.19702 z M 103.75,203.94001 92,197.98372 v -4.98679 -4.98679 l 12.5,6.2264 12.5,6.22641 v 4.76853 c 0,2.62268 -0.3375,4.74519 -0.75,4.71667 -0.4125,-0.0285 -6.0375,-2.73219 -12.5,-6.00814 z m 40.40351,0.75321 c -2.99323,-1.48969 -3.07456,-2.12974 -3.07456,-6.56763 0,-2.65021 0.20973,-5.08173 0.46607,-5.08173 0.25634,0 2.97739,0.71449 4.92105,1.64135 3.32258,1.58443 3.88481,2.80649 3.88481,7.33333 0,5.31692 -1.54921,4.98799 -6.19737,2.67468 z M 69.75,186.93191 C 66.186304,185.05057 66,184.70565 66,179.98911 v -4.96312 l 7.175439,3.4582 C 77.586985,180.61033 75,179.50006 75,184.19927 c 0,2.6404 -0.3375,4.78084 -0.75,4.75653 -0.4125,-0.0243 -2.4375,-0.93505 -4.5,-2.02389 z M 49.25,176.71878 41,172.55553 v -4.77777 C 41,165.14999 41.234989,163 41.522197,163 c 0.287209,0 4.112209,1.80502 8.5,4.01116 L 58,171.02232 v 4.98884 c 0,2.74386 -0.1125,4.9623 -0.25,4.92986 -0.1375,-0.0325 -3.9625,-1.93245 -8.5,-4.22224 z m 46,-7.46416 -3.25,-1.61747 v -10.3389 -10.3389 L 96,149 l 4,2.04065 v 9.97967 c 0,5.48883 -0.3375,9.9509 -0.75,9.91573 -0.4125,-0.0352 -2.2125,-0.79182 -4,-1.68143 z m 42,-30.51367 C 133.13625,136.67442 133,136.452 133,131.80299 133,129.16134 133.24293,127 133.53984,127 c 0.29691,0 3.94472,1.21617 6.12281,2.32734 3.81289,1.9452 2.33735,1.89849 2.33735,6.69298 0,2.73883 0.41382,7.01316 0.27632,6.97905 -0.1375,-0.0341 -2.68882,-3.08418 -5.02632,-4.25842 z m -42,-0.48633 c -2.993235,-1.48969 -5.662281,-1.64728 -5.662281,-6.08517 0,-2.65021 2.622014,-5.16945 2.878354,-5.16945 0.25634,0 2.05634,0.75835 4,1.68521 3.322582,1.58443 5.507607,2.23632 5.507607,6.76316 0,5.31692 -2.075516,5.11956 -6.72368,2.80625 z M 107.75,123.94108 92,115.98773 v -4.98998 -4.98998 l 16.5,8.23206 16.5,8.23205 v 4.76406 c 0,2.62023 1.06601,5.3982 0.65351,5.36917 -0.4125,-0.029 -9.24101,-4.28968 -17.90351,-8.66403 z m -75.5,-37.719005 -8.118377,-3.224862 0.434189,-5.463809 c 0.208326,-2.621566 -0.588795,-5.897996 -0.322894,-5.897996 0.265901,0 5.106439,3.03827 9.240538,5.083877 L 41,80.438571 v 4.780714 c 0,2.629393 -0.3375,4.753968 -0.75,4.721277 -0.4125,-0.03269 -4.0125,-1.70601 -8,-3.718487 z"
         id="path28"
         sodipodi:nodetypes="sscssssscccccssssssssssscssssscssscscsscccccssssssssssssssssscccccsssscssscsss" />
      <path
         style="fill:#706451"
         d="m 175,281.00264 v -4.98722 l 11.98462,-6.00771 c 6.59155,-3.30424 13.26918,-7.84982 13.55263,-7.84982 0.28346,0 -0.53725,3.98795 -0.53725,6.61063 l 0.96491,4.24221 -13.46491,6.75273 -12.5,6.2264 z m -25,-18.2971 c 0,-5.12245 -1.34778,-5.83648 2.04528,-7.45452 1.94366,-0.92686 5.74766,-1.66769 6.004,-1.66769 0.25634,0 -0.0493,2.65752 -0.0493,5.39635 0,4.80284 1.00074,5.78858 -3.0696,7.26843 L 150,268.04065 Z m -13.38596,-0.96459 c -4.19534,-2.10752 -4.8733,-2.24034 -4.25,-7.42497 L 133,249.02599 l 6.07895,2.69066 c 4.56715,2.0215 2.92105,1.69082 2.92105,6.98262 0,2.9154 -0.1125,5.27281 -0.25,5.2387 -0.1375,-0.0341 -2.79846,-1.02278 -5.13596,-2.19702 z M 158,248.22286 v -4.77715 l 8.5,-4.21556 8.5,-4.21557 v 4.98155 4.98155 l -7.9778,4.01116 c -4.38779,2.20614 -8.72685,4.57188 -9.01406,4.57188 -0.28721,0 -0.008,-2.71043 -0.008,-5.33786 z m 101,-40.21515 v -4.99229 l 11.98462,-6.00771 C 277.57617,193.70347 283.20117,191 283.48462,191 283.76808,191 284,193.24653 284,195.99229 v 4.99229 l -11.98462,6.00771 c -6.59155,3.30424 -12.9183,6.27087 -13.20175,6.27087 -0.28346,0 0.18637,-2.50969 0.18637,-5.25545 z M 35.509462,205.30481 C 31.940633,203.42076 33,198.71083 33,193.95579 v -4.99644 l 5.209525,2.59889 C 42.085037,193.49163 41,193.21748 41,198.02032 c 0,2.73883 0.344948,8.0999 0.207448,8.07559 -0.1375,-0.0243 -3.635486,0.29774 -5.697986,-0.7911 z M 183,195.00771 v -4.99229 l 11.98462,-6.00771 c 6.59155,-3.30424 13.27101,-6.81406 13.55446,-6.81406 0.28346,0 -0.53908,3.05288 -0.53908,5.79864 v 4.99229 l -11.98462,6.00771 C 189.42383,197.29653 183.79883,200 183.51538,200 183.23192,200 183,197.75347 183,195.00771 Z m -33,-13.96706 c 0,-4.82656 -1.36901,-5.84448 2.72807,-7.25995 L 158,171.95935 v 5 c 0,4.82656 1.19483,6.24568 -2.94737,7.52311 L 150,186.04065 Z m -46.25,-28.10874 c -3.56571,-1.8824 -4.890351,-0.95231 -4.890351,-5.68387 0,-2.73686 1.350081,-6.24804 1.606421,-6.24804 0.25634,0 2.23178,0.31975 4.17544,1.24661 3.39057,1.61685 4.36726,2.6903 4.36726,7.78948 0,2.92314 -1.12127,4.94402 -1.25877,4.91971 -0.1375,-0.0243 -1.9375,-0.93505 -4,-2.02389 z M 225,133.01116 v -4.98884 l 7.9778,-4.01116 c 4.38779,-2.20614 8.77103,-4.69346 9.05824,-4.69346 0.28721,0 -0.036,2.92728 -0.036,5.67114 v 4.98884 l -7.9778,4.01116 C 229.63441,136.19498 225.80941,138 225.5222,138 225.23499,138 225,135.75502 225,133.01116 Z m 50,-14.81189 c 0,-4.69921 -1.19408,-5.73001 3.44554,-7.29714 L 284,109.02599 v 4.96668 c 0,4.77936 0.65699,5.97328 -3.15381,7.91741 -2.17809,1.11117 -5.81579,2.26843 -6.1127,2.26843 -0.29691,0 0.26651,-3.33884 0.26651,-5.97924 z"
         id="path27"
         sodipodi:nodetypes="ccsssccccssssscssscssssscccccsssssssscssssscssssssssscssssscsscssssssssssssscssssscsssss" />
      <path
         style="fill:#264e81"
         d="M 61.25,244.25462 C 58.195796,242.73459 58,242.31795 58,237.3389 58,232.16438 57.906586,231.99299 54,230 l -4,-2.04065 V 207.97968 C 50,196.99085 50.209733,188 50.466073,188 c 0.25634,0 2.05634,0.75835 4,1.68521 L 58,191.37042 v 15.29447 15.29446 L 62,224 l 4,2.04065 v 9.97967 c 0,5.48883 0.654931,10.69522 0.242431,10.66005 -0.4125,-0.0352 -3.204931,-1.53614 -4.992431,-2.42575 z m 67.5,-48.32271 c -3.56256,-1.88074 -3.75,-2.2274 -3.75,-6.93548 0,-4.77497 -0.14594,-5.03023 -4,-6.99643 l -4,-2.04065 -0.61404,-25.56739 c -0.33646,-14.00979 0.64833,-26.13757 0.90467,-26.13757 0.25634,0 2.23178,1.50396 4.17544,2.43082 l 5.68305,1.72907 L 125,153.03334 v 20.66291 l 4,1.80375 4,1.80375 v 10.34812 c 0,5.69147 -0.1125,10.32824 -0.25,10.30393 -0.1375,-0.0243 -1.9375,-0.93505 -4,-2.02389 z m -58.5,-39.19096 -4.25,-2.13498 -0.701754,-11.43034 -0.08772,-9.93911 5.289474,2.97574 4.5,2.18627 0.964912,10.73934 c 0.506985,5.64267 -1.077412,9.83421 -1.214912,9.8001 -0.1375,-0.0341 -2.1625,-1.02278 -4.5,-2.19702 z"
         id="path26"
         sodipodi:nodetypes="ssscssscccccsssssscssscccccsssscccccsss" />
      <path
         style="fill:#665728"
         d="M 150,283.02032 V 268.04065 L 154,266 l 4,-2.04065 v 10.02033 c 0,5.51117 0.23499,10.02032 0.5222,10.02032 0.28721,0 4.11221,-1.80502 8.5,-4.01116 L 175,275.97768 v 5.00345 5.00345 l -11.98462,6.00771 c -6.59155,3.30424 -13.33303,6.4419 -13.61648,6.4419 -0.28346,0 0.6011,-7.17504 0.6011,-15.41387 z m 50,-14.77653 v -4.7562 l 37.5,-18.74205 37.5,-18.74205 v -10.30248 -10.30248 l 4.5,-2.18627 4.5,-2.18627 v 15.24262 15.24261 l -41.50316,20.74439 C 219.6701,263.66502 200.7701,273 200.49684,273 200.22358,273 200,270.85971 200,268.24379 Z m -87.75,1.42628 -5.12719,-2.41498 -0.61404,-25.21526 C 106.16998,228.12731 108.24293,217 108.53984,217 c 0.29691,0 2.32191,0.90915 4.5,2.02032 C 116.84945,220.96384 117,221.22918 117,226 c 0,4.77914 0.14535,5.03351 4,7 l 4,2.04065 0.35088,15.52792 c 0.18612,8.23672 0.38618,14.89794 -0.0263,14.87845 -0.4125,-0.0195 -2.94956,-1.161 -4.32456,-1.94702 -3.67664,-2.10176 -3.86762,-1.94857 -4.19774,3.36709 L 116.5,271.73417 Z M 78.25,252.71091 66,246.53762 v -5.27597 -5.27596 l 13,6.51431 13,6.51431 v 4.99285 c 0,2.74606 0.758991,5.75626 0.346491,5.72441 -0.4125,-0.0318 -7.358991,-3.62534 -14.096491,-7.02066 z m 67,2.54371 c -2.99323,-1.48969 -4.56579,-0.7043 -4.56579,-5.14219 0,-5.23488 0.15343,-8.11256 3.88917,-5.97702 1.375,0.78602 4.26412,2.80967 4.67662,2.82915 0.4125,0.0195 0.75,-6.70541 0.75,-14.94424 V 217.04065 L 146,215 c -3.85796,-1.96818 -4,-2.21748 -4,-7.02032 0,-5.40052 -1.32522,-6.58615 2.42105,-4.44459 1.375,0.78602 4.41645,2.40999 4.82895,2.42947 0.4125,0.0195 -0.16168,-5.29938 0.17982,-10.77757 L 150,186.04065 154,184 l 4,-2.04065 v 10.02033 c 0,5.51117 0.23192,10.02032 0.51538,10.02032 0.28345,0 5.90845,-2.70347 12.5,-6.00771 L 183,189.98458 v 5.00771 c 0,2.75424 0.24293,5.00771 0.53984,5.00771 0.29691,0 2.32191,-0.90915 4.5,-2.02032 L 192,195.95935 v 5.01476 5.01477 l -17,8.51112 -17,8.51112 v 15.30923 15.30923 l -3.53393,1.68521 c -4.25032,2.02683 -5.0329,2.02172 -9.21607,-0.0602 z M 42.907895,235.62489 C 39.342188,233.74249 41,233.70767 41,228.97611 c 0,-2.73686 -0.590406,-5.69979 -0.293495,-5.69979 0.296911,0 4.690332,1.96178 6.868421,3.07295 3.812897,1.9452 2.425074,1.87656 2.425074,6.67105 0,2.73883 -0.0086,5.31067 -0.421053,5.28636 -0.4125,-0.0243 -4.608552,-1.59295 -6.671052,-2.68179 z m 156.099675,-13.2536 -1.05446,-10.43506 5.33271,-1.74724 c 2.04631,-0.67046 4.61204,-2.67764 4.86838,-2.67764 0.25634,0 -0.1542,5.9053 -0.1542,11.30344 v 9.81479 l -3.53393,1.68521 c -1.94366,0.92686 -5.17028,2.49156 -5.42662,2.49156 -0.25634,0 -0.56494,-5.0633 -0.0319,-10.43506 z M 242,216.70554 v -15.33512 l 3.53393,-1.68521 c 1.94366,-0.92686 3.74366,-1.68521 4,-1.68521 0.25634,0 0.46607,6.74085 0.46607,14.97968 v 14.97967 L 246,230 l -4,2.04065 z M 74.25,219.71878 66,215.55553 V 200.29809 185.04065 L 62,183 c -3.861247,-1.96986 -5.527873,-0.81078 -4.877193,-5.59328 L 58,170.95935 l 5.973684,2.65469 C 67.928076,175.37135 66,175.22086 66,180 c 0,4.77082 0.150546,5.03616 3.960162,6.97968 2.178089,1.11117 3.983791,1.66944 4.280702,1.66944 C 74.537775,188.64912 75,186.975 75,184.5 c 0,-2.475 0.234989,-4.5 0.522197,-4.5 0.287209,0 4.260373,1.17017 8.54386,3.57256 L 92,188.02232 v 5 5 l -7.977803,-4.01116 C 79.634406,191.80502 75.809406,190 75.522197,190 75.234989,190 75,192.24085 75,194.97968 c 0,4.80284 0.14204,5.05214 4,7.02032 l 4,2.04065 v 9.97967 c 0,5.48883 -0.1125,9.95314 -0.25,9.9207 -0.1375,-0.0325 -3.9625,-1.93245 -8.5,-4.22224 z m 55,-3.00787 -13.17105,-6.34873 0.17544,-4.63723 c 0.0991,-2.62097 0.27578,-5.4267 0.55924,-5.4267 0.28345,0 6.6102,3.40522 13.20175,6.70946 L 142,213.01542 v 4.99229 c 0,2.74576 0.41382,5.58028 0.27632,5.54843 -0.1375,-0.0318 -6.28882,-3.44991 -13.02632,-6.84523 z M 200,197.01837 c 0,-4.80057 -1.59439,-4.86427 2.26325,-6.83229 3.9006,-1.98994 5.73675,-2.35737 5.73675,-7.48355 v -5.25682 l 8.5,-4.21556 8.5,-4.21557 v -10.00729 c 0,-5.50401 -0.3375,-9.99134 -0.75,-9.97185 -0.4125,0.0195 -1.875,0.67854 -3.25,1.46456 -1.375,0.78602 -2.8375,1.44508 -3.25,1.46456 -0.4125,0.0195 -0.75,-4.45541 -0.75,-9.94424 v -9.97967 L 221,130 c 3.85614,-1.96726 4,-2.21934 4,-7.00916 v -4.96852 l 7.9778,-4.01116 c 4.38779,-2.20614 8.21279,-4.01116 8.5,-4.01116 0.28721,0 0.5222,2.14971 0.5222,4.77714 l 0.6823,4.83918 -9.1823,4.15353 -8.5,4.21557 v 5.00729 c 0,2.75401 0.23499,5.00729 0.5222,5.00729 0.28721,0 4.11221,-1.80502 8.5,-4.01116 L 242,129.97768 v 15.01116 c 0,8.25614 0.23029,15.01116 0.51176,15.01116 0.28147,0 7.70647,-3.60265 16.5,-8.00589 L 275,143.98822 v -10.29484 -10.29485 l 4.5,-2.18627 4.5,-2.18627 v 30.78774 30.78774 l -4.5,2.18627 -4.5,2.18627 V 169.987 C 275,161.74415 274.79027,155 274.53393,155 c -0.25634,0 -2.05634,0.75835 -4,1.68521 C 267.17473,158.2871 267,158.62119 267,163.44216 v 5.07173 L 233.5,185.25499 200,201.9961 Z M 20.25,192.74095 C 16.136251,190.67442 16,190.452 16,185.80299 16,183.16134 16.242927,181 16.539838,181 c 0.296911,0 3.769279,1.04073 5.947368,2.1519 C 26.300103,185.0971 25,185.22583 25,190.02032 c 0,2.73883 0.852412,6.13597 0.714912,6.10186 -0.1375,-0.0341 -3.127412,-2.20699 -5.464912,-3.38123 z M 99.162281,182.18698 92,177.56302 v -4.78151 c 0,-5.19678 0.26676,-5.41562 4,-3.28151 1.375,0.78602 2.8375,1.44508 3.25,1.46456 0.4125,0.0195 0.75,-4.47371 0.75,-9.98488 v -10.02033 l 4,2.04065 4,2.04065 v 14.97967 c 0,8.23883 0.97829,16.00556 0.56579,15.97287 -0.4125,-0.0327 -5.65102,-1.3836 -9.403509,-3.80621 z M 145.75,173.93191 c -3.56571,-1.8824 -4.62719,-0.95231 -4.62719,-5.68387 0,-5.39685 -1.23728,-9.78421 5.00877,-5.05506 1.2627,0.95605 2.70592,1.7521 3.11842,1.77158 0.4125,0.0195 0.75,-6.70954 0.75,-14.9534 v -14.98884 l -7.9778,-4.01116 C 137.63441,128.80502 133.80941,127 133.5222,127 133.23499,127 133,129.025 133,131.5 c 0,2.475 1.32536,5.64035 1.06902,5.64035 -0.25634,0 -3.59143,-1.8987 -5.53509,-2.82556 C 125.17377,132.71244 125,132.37983 125,127.55073 v -5.07885 L 108.5,114.23983 92,106.00777 v 4.99357 4.99356 L 66.5,103.25657 39.263247,90.146071 40.069596,85.056118 41,80.46238 28.767569,74.370091 16.535138,68.277803 l 4.209677,-2.147618 4.209678,-2.147617 24.522753,12.249229 c 13.487515,6.737076 26.383561,12.56968 26.383561,12.885531 0,0.315851 -3.548307,1.320065 -5.610807,2.307397 l -3.75,1.79515 12.482286,6.264212 12.482287,6.264213 4.311194,-2.09454 4.311193,-2.09454 29.21667,14.59833 29.21666,14.59834 12.47704,-6.25455 12.47704,-6.25455 -20.95988,-10.48946 -20.95988,-10.489462 4.20709,-2.146294 4.20708,-2.146295 21.01561,10.516911 L 192,114.0091 v 4.98989 4.98989 l -17,8.51112 -17,8.51112 v 15.47412 15.47411 l -3.96016,2.02033 c -4.66685,2.38085 -3.6787,2.38654 -8.28984,-0.0478 z m -67,-3.05004 -3.75,-1.92965 v -9.97611 c 0,-5.48686 0.3375,-9.96016 0.75,-9.94067 0.4125,0.0195 1.875,0.67854 3.25,1.46456 1.375,0.78602 2.79364,0.83104 3.20614,0.85052 C 82.61864,151.37002 83,147.50585 83,142.013 v -9.98701 l 4.5,2.18627 4.5,2.18627 v 15.30074 c 0,8.4154 1.272702,16.59394 0.975791,16.59394 -0.296911,0 -3.81412,-2.19041 -5.963585,-3.28698 l -3.908119,-1.99378 -0.302043,4.89953 L 82.5,172.81151 Z m -46.5,-2.6598 -7.25,-3.65905 v -4.78151 C 25,157.15168 25.217555,155 25.483456,155 c 0.265901,0 3.865901,1.67368 8,3.71929 l 8.437597,4.11402 L 41,167.21929 c -0.540383,2.57326 0.451974,5.45571 0.03947,5.42302 -0.4125,-0.0327 -4.801974,-2.40776 -8.789474,-4.42024 z m 175.3114,-6.9035 c -0.35087,-5.23309 0.58587,-4.35305 4.39876,-6.29825 2.17809,-1.11117 4.20309,-2.02032 4.5,-2.02032 0.29691,0 0.53984,2.24085 0.53984,4.97968 0,4.79449 -0.14727,5.0548 -3.96016,7 -2.17809,1.11117 -5.69432,3.86243 -5.99123,3.86243 -0.29691,0 0.69602,-4.79085 0.51279,-7.52354 z M 19.75,151.93191 C 16.184293,150.04951 16,149.70767 16,144.97611 16,142.23925 16.242927,140 16.539838,140 c 0.296911,0 2.321911,0.90915 4.5,2.02032 3.812897,1.9452 3.960162,2.20551 3.960162,7 0,2.73883 -0.3375,4.95979 -0.75,4.93548 -0.4125,-0.0243 -2.4375,-0.93505 -4.5,-2.02389 z m 83.5,-9.67729 c -2.99323,-1.48969 -4.960526,-2.12974 -4.960526,-6.56763 0,-2.65021 1.920256,-4.68699 2.176596,-4.68699 0.25634,0 1.04757,-0.86446 2.99123,0.0624 3.32258,1.58443 5.28831,4.69246 5.28831,9.2193 0,5.31692 -0.84745,4.28623 -5.49561,1.97292 z M 200,114.99534 v -5.00992 l 8.516,-4.2235 8.516,-4.22351 -8.2276,-4.136756 -8.2276,-4.136758 3.93062,-2.016533 3.93063,-2.016533 8.27479,4.103875 8.27479,4.103875 12.00619,-5.936522 C 243.59722,88.237971 249,85.322566 249,85.02438 249,84.726195 228.75,74.365224 204,62 179.25,49.634776 156.63158,39.814794 156.63158,39.480937 c 0,-0.333857 4.09756,-1.956924 6.21096,-2.909934 l 3.84255,-2.259061 45.91296,23.487048 45.91297,22.960732 12.74449,-6.387385 L 284,67.984952 v 20.4872 20.487198 l -3.96016,2.02033 c -2.17809,1.11117 -5.00944,2.76464 -5.30635,2.76464 C 274.43658,113.74432 275,106.25 275,98 c 0,-8.25 -0.22737,-15 -0.50526,-15 -0.2779,0 -17.1529,8.326184 -37.5,18.50263 L 200,120.00526 Z M 19.75,110.93191 C 16.184293,109.04951 16,108.70767 16,103.97611 16,101.23925 16.242927,99 16.539838,99 c 0.296911,0 3.965624,1.06421 6.143713,2.17539 3.812897,1.9452 2.316449,2.05044 2.316449,6.84493 0,2.73883 -0.3375,4.95979 -0.75,4.93548 -0.4125,-0.0243 -2.4375,-0.93505 -4.5,-2.02389 z m 92.27746,-28.351426 -20.472546,-10.31277 4.199288,-2.142317 4.199288,-2.142317 20.52326,10.247131 c 11.28779,5.635922 22.18992,10.747611 22.18992,11.064475 0,0.643793 -8.0672,4.239825 -9.18744,4.156327 -0.39384,-0.02936 -10.19187,-5.198506 -21.45177,-10.870529 z m 46.12246,-10.437706 -33.35007,-16.748774 4.19059,-1.889693 4.19059,-1.889693 32.90948,16.430573 c 18.10022,9.036815 33.54545,16.317373 33.54545,16.634672 0,0.490576 -7.29529,4.422656 -7.91989,4.265913 -0.11884,-0.02982 -15.2236,-7.591172 -33.56615,-16.802998 z M 62.206412,57.668485 49.912825,51.440884 l 4.311301,-2.094592 4.311301,-2.094591 12.451743,6.241867 12.451742,6.241868 -4.179618,2.132282 c -2.29879,1.172755 -4.310045,2.108901 -4.469456,2.080325 -0.159411,-0.02858 -5.821952,-2.854378 -12.583426,-6.279558 z M 99.53088,42.831352 83.561761,34.768266 l 3.919664,-2.010908 3.919665,-2.010909 16.79731,8.352203 16.79731,8.352204 -3.24785,1.732656 c -1.78632,0.952962 -4.22988,2.824258 -5.05488,2.818282 -0.825,-0.006 -8.37908,-4.735745 -17.1621,-9.170442 z m 33.48184,-16.324957 -8.44416,-4.245642 4.2063,-2.145895 4.2063,-2.145896 8.55026,4.296412 8.55026,4.296412 -4.3124,2.095125 -4.3124,2.095126 z"
         id="path25"
         sodipodi:nodetypes="scccssscccsssscccccccccsssccssssscssssccscccccsssssssscssssscccssscssscccccccssssssssssccssscssscssssccccssccsscssssssscccsssscscsssssscsssssscccssssscsscssscccssscssscccccccccsssscccsssssssssssssscccsssscssscsssssscccccccccccccssscccccccccccccccccccccssscsssssscccsssccccssssscsssssssssssscssssscsssscsscccccccssssscccccccsssssccsssssssssscssssssscssssssccccsssscccccsssccccccccccc" />
      <path
         style="fill:#135a57"
         d="M 128.75,277.88187 125,275.95222 v -9.97611 C 125,260.48925 125.23499,256 125.5222,256 c 0.28721,0 4.67672,0.84515 8.87281,3.39712 L 142,264.02232 v 5.00916 5.00917 l -3.96016,-2.02033 C 135.86175,270.90915 133.86027,270 133.5921,270 c -0.26817,0 -0.6236,2.20759 -0.78984,4.90576 L 132.5,279.81151 Z m 4,-28.94396 -7.75,-3.96212 v -4.9806 -4.98061 l 8.5,4.21557 8.5,4.21556 v 4.77715 c 0,2.62743 -0.3375,4.75464 -0.75,4.72715 -0.4125,-0.0275 -4.2375,-1.83294 -8.5,-4.0121 z M 45.25,225.74095 41,223.60597 v -15.28999 -15.28999 l 4.5,2.18627 4.686081,2.15526 0.340235,15.50719 c 0.184593,8.41337 -0.328681,15.31446 -0.466181,15.28035 -0.1375,-0.0341 -2.472635,-1.23987 -4.810135,-2.41411 z M 259,218.18521 c 0,-4.52684 -1.15324,-5.47381 2.16934,-7.05824 C 263.113,210.20011 266.27759,210 266.53393,210 c 0.25634,0 0.96229,4.46165 0.96229,7.10979 0,4.52684 -0.70757,2.62057 -4.03015,4.205 -1.94366,0.92686 -4.3577,2.03609 -4.61404,2.03609 -0.25634,0 0.14797,-2.51753 0.14797,-5.16567 z m 0,-20.14456 c 0,-4.82656 -0.96937,-5.1922 3.00757,-6.9166 l 4.99243,-2.1647 0.31013,6.79878 C 267.53008,200.57968 266.86125,199.03014 263,201 l -4,2.04065 z m -122.25,1.89126 -3.75,-1.97969 v -20.46311 -20.46312 l 4.5,2.18627 4.5,2.18627 v 20.30074 c 0,11.1654 -0.3375,20.28084 -0.75,20.25653 -0.4125,-0.0243 -2.4375,-0.93505 -4.5,-2.02389 z M 267,122.54065 v -15.5 L 271,105 l 4,-2.04065 v 15.5 15.5 L 271,136 l -4,2.04065 z"
         id="path24"
         sodipodi:nodetypes="ccssscccsssccscccccsssscccccsssssssssssscsscsscccccsssccccccccc" />
      <path
         style="fill:#951111"
         d="M 103.75,254.93191 C 100.18744,253.05117 100,252.70451 100,247.99643 100,243.22146 99.854061,242.9662 96,241 l -4,-2.04065 v -9.97967 c 0,-5.48883 -0.316583,-10.85687 -0.06024,-10.85687 0.25634,0 2.582656,1.63554 4.526316,2.5624 L 100,222.37042 v 10.29447 10.29446 L 104,245 c 3.85796,1.96818 4,2.21748 4,7.02032 0,2.73883 -0.1125,4.95979 -0.25,4.93548 -0.1375,-0.0243 -1.9375,-0.93505 -4,-2.02389 z M 28.25,217.25462 24.342105,216.5582 25,205.29825 25.341148,194.29256 29,197 l 4,2.04065 v 9.97967 c 0,5.48883 0.780921,11.00353 0.368421,10.96836 -0.4125,-0.0352 -3.330921,-1.84445 -5.118421,-2.73406 z M 28.114035,187.17314 C 24.545206,185.28909 25,184.71083 25,179.95579 v -4.99644 l 6.017544,2.50118 C 35.016839,179.12282 33,179.21748 33,184.02032 c 0,2.73883 -0.1125,4.95979 -0.25,4.93548 -0.1375,-0.0243 -2.573465,-0.69382 -4.635965,-1.78266 z M 53.25,148.25462 48.947368,147.3389 49.385965,130.87997 c 0.224435,-8.42222 -0.228864,-15.84488 0.02748,-15.84488 0.25634,0 3.108972,1.72326 5.052632,2.65012 L 58,119.37042 l 0.614035,15.31479 c 0.557817,13.91265 0.349136,17.02024 -1.364035,15.25084 -0.287978,-0.29743 -2.2125,-0.79182 -4,-1.68143 z M 28.75,135.93191 25,133.95222 v -9.97611 c 0,-5.48686 0.116693,-10.53435 0.373033,-10.53435 0.25634,0 2.14938,1.31659 4.09304,2.24345 L 33,117.37042 v 10.31479 c 0,5.67314 0.228648,10.26389 0.09115,10.23958 -0.1375,-0.0243 -2.278648,-0.90404 -4.341148,-1.99288 z"
         id="path23"
         sodipodi:nodetypes="ssscssscccssssscccccssssscssssscssscsssscssscssss" />
      <path
         style="fill:#1c3758"
         d="m 134.26892,281.62178 c -3.56571,-1.8824 -2.3854,-1.91411 -2.3854,-6.64567 0,-2.73686 1.35941,-4.97611 1.65632,-4.97611 0.29691,0 4.05866,1.09523 6.23675,2.2064 3.81289,1.9452 2.22341,2.01943 2.22341,6.81392 0,2.73883 -0.3375,4.95979 -0.75,4.93548 -0.4125,-0.0243 -4.91858,-1.24518 -6.98108,-2.33402 z M 183,246.50387 v -25.48155 l 7.9778,-4.01116 c 4.38779,-2.20614 8.21279,-4.01116 8.5,-4.01116 0.28721,0 0.5222,11.37471 0.5222,25.27714 v 25.27715 l -8.5,4.21556 -8.5,4.21557 z M 51.276316,239.64058 C 48.239183,238.07533 50,238.32317 50,233.29825 v -5.3389 L 54,230 c 3.85796,1.96818 4,2.21748 4,7.02032 0,5.49039 6.838274,9.60975 -6.723684,2.62026 z M 267,224.70554 c 0,-5.12245 -1.59588,-5.58837 1.79718,-7.20641 1.94366,-0.92686 5.93011,-1.57666 6.18645,-1.57666 0.25634,0 0.69867,3.80703 0.69867,6.54586 0,4.80284 -0.82434,3.56349 -4.6823,5.53167 l -4,2.04065 z M 61.75,223.93191 58,221.95222 v -14.97611 c 0,-8.23686 -0.535881,-15.8533 -0.279541,-15.8533 0.25634,0 2.801954,1.63554 4.745614,2.5624 L 66,195.37042 v 15.31479 c 0,8.42314 -0.1125,15.2949 -0.25,15.27059 -0.1375,-0.0243 -1.9375,-0.93505 -4,-2.02389 z m 56.82906,-32.6823 C 115.01023,189.36556 117,189.71083 117,184.95579 v -4.99644 L 121,182 c 3.85796,1.96818 4.6823,1.96937 4.6823,6.77221 0,2.73883 1.9245,6.52369 1.787,6.49938 -0.1375,-0.0243 -6.82774,-2.93314 -8.89024,-4.02198 z M 200,166.02032 V 151.04065 L 204,149 l 4,-2.04065 v 15.33511 15.33512 l -3.53393,1.68521 c -1.94366,0.92686 -4.67406,2.92575 -4.9304,2.92575 -0.25634,0 0.46433,-7.98139 0.46433,-16.22022 z m -71.75,9.2343 -3.25,-1.61747 v -20.31858 c 0,-11.17521 0.16587,-21.32734 0.42221,-21.32734 0.25634,0 2.1002,1.76712 4.04386,2.69398 l 5.63919,2.73784 0.78948,20.53409 c 0.35251,9.16884 -1.91645,20.02285 -2.32895,19.98768 -0.4125,-0.0352 -3.52829,-1.80059 -5.31579,-2.6902 z m -61.923202,-10.1884 c -4.113749,-2.06653 -1.133148,-0.21105 -1.133148,-4.86006 0,-2.64165 0.460021,-5.79542 0.756932,-5.79542 0.296911,0 4.753272,1.80543 6.931361,2.9166 C 76.69484,159.27254 75,159.22583 75,164.02032 c 0,2.73883 0.244155,5.19987 0.106655,5.16576 -0.1375,-0.0341 -6.442357,-2.94562 -8.779857,-4.11986 z M 250,125.51116 V 95.022321 l 7.66767,-4.321295 c 4.2785,-2.411253 9.14319,-4.63143 9.4304,-4.63143 0.28721,0 -0.0981,14.650384 -0.0981,31.419244 v 30.48884 l -7.9778,4.01116 c -4.38779,2.20614 -8.95711,5.12764 -9.24432,5.12764 -0.28721,0 0.22212,-14.83646 0.22212,-31.60532 z"
         id="path22"
         sodipodi:nodetypes="sssssssccsssccccsscsssssssscsscssscssssscssssscccccsssscssscssssssssssscssscssss" />
      <path
         style="fill:#720c0c"
         d="m 158,263.68627 v -10.28774 l 4.5,-2.18627 4.5,-2.18627 v 10.28774 10.28774 l -4.5,2.18627 -4.5,2.18627 z m -57.21557,0.51389 C 97.73023,262.68013 100,263.31795 100,258.3389 c 0,-5.17452 -1.847796,-5.56521 -5.754386,-7.5582 C 90.384367,248.81084 92,248.78591 92,243.95935 v -5 L 96,241 c 3.854646,1.96649 4,2.22086 4,7 0,4.77914 1.66501,5.40567 5.51966,7.37216 3.85796,1.96818 2.20218,0.87201 2.66642,5.40762 1.02968,10.05998 -2.74325,5.73881 -7.40165,3.42038 z m 3.08962,-17.96568 c -3.56571,-1.8824 -4.618373,-3.71289 -4.618373,-8.44445 0,-2.73686 0.954053,-4.79003 1.210393,-4.79003 0.25634,0 2.05634,0.75835 4,1.68521 3.39057,1.61685 4.21623,1.4046 4.21623,6.50378 0,2.92314 -0.7948,5.79112 -0.9323,5.76681 -0.1375,-0.0243 -1.81345,0.36752 -3.87595,-0.72132 z M 158,238.19927 c 0.062,-5.69164 -1.05909,-5.69799 3.5696,-7.29714 L 167,229.02599 v 4.96668 c 0,4.77936 5.55711,3.36816 -3.65003,8.22755 -2.16245,1.14131 -5.69173,1.77221 -5.98864,1.77221 -0.29691,0 0.6099,-3.15292 0.63867,-5.79316 z m 76,-7.15862 c 0,-4.82656 0.13875,-5.07079 4,-7.04065 l 4,-2.04065 0.30702,6.97368 C 242.5193,233.75492 241.86125,232.03014 238,234 l -4,2.04065 z M 28.75,227.93191 c -3.565707,-1.8824 -4.758772,-0.90845 -4.758772,-5.64001 0,-2.73686 1.218505,-6.2919 1.474845,-6.2919 0.25634,0 3.481779,1.50396 5.425439,2.43082 C 34.282079,220.04767 33,219.58603 33,224.68521 c 0,2.92314 0.172588,5.36069 0.03509,5.33638 -0.1375,-0.0243 -2.222588,-1.00084 -4.285088,-2.08968 z M 225,220.02032 v -9.97967 l 3.96016,-2.02033 c 2.17809,-1.11117 4.82336,-2.64059 5.12027,-2.64059 0.29691,0 -0.0804,5.11112 -0.0804,10.59995 v 9.97967 l -3.96016,2.02033 C 227.86175,229.09085 225.83675,230 225.53984,230 225.24293,230 225,225.50915 225,220.02032 Z M 86.75,225.93191 82.561404,224.21538 83,213.98911 v -9.96312 l 4.5,2.18627 4.5,2.18627 v 9.80074 c 0,5.3904 0.320395,9.91242 -0.09211,9.88811 -0.4125,-0.0243 -3.095395,-1.06663 -5.157895,-2.15547 z M 37.800673,212.80529 c -3.058867,-1.52235 -5.429326,-1.51497 -5.17348,-6.53336 L 33,198.95935 37,201 c 3.85796,1.96818 4,2.21748 4,7.02032 0,5.49039 1.459123,7.1034 -3.199327,4.78497 z M 35.52193,191.23893 C 31.953101,189.35488 33,188.71083 33,183.95579 v -4.99644 l 5.845301,2.62991 C 42.794957,183.36628 41,183.21748 41,188.02032 c 0,2.73883 0.414729,5.48702 0.277229,5.46271 -0.1375,-0.0243 -3.692799,-1.15526 -5.755299,-2.2441 z M 158,182.02032 v -9.97967 l 3.96016,-2.02033 c 2.17809,-1.11117 4.20309,-2.02032 4.5,-2.02032 0.29691,0 0.53984,4.49085 0.53984,9.97968 v 9.97967 l -3.96016,2.02033 c -2.17809,1.11117 -4.82336,3.75707 -5.12027,3.75707 -0.29691,0 0.0804,-6.2276 0.0804,-11.71643 z m 25,-17.51299 v -15.46668 l 3.96016,-2.02033 c 2.17809,-1.11117 4.20309,-2.02032 4.5,-2.02032 0.29691,0 0.53984,6.88533 0.53984,15.30073 v 15.30074 l -4.5,2.74451 -4.56203,2.43438 z m -71.25,2.42458 -3.75,-1.97969 v -9.97611 c 0,-5.48686 -0.67812,-11.33576 -0.38121,-11.33576 0.29691,0 3.24296,2.2688 5.42105,3.37997 L 117,149.04065 v 9.97967 c 0,5.48883 0.32039,10.52997 -0.0921,10.50566 -0.4125,-0.0243 -3.09539,-1.50523 -5.15789,-2.59407 z m -56.877193,-7.5808 c -2.993235,-1.48969 -8.20614,-2.1736 -5.442982,-7.62026 C 50.62884,149.36738 50.209733,147 50.466073,147 c 0.25634,0 3.635287,0.80221 5.578947,1.72907 3.322582,1.58443 1.95498,1.9293 1.95498,6.45614 0,5.31692 1.520971,6.47921 -3.127193,4.1659 z m -26.06078,-13.10907 c -3.568829,-1.88405 -4.151068,0.69458 -3.936081,-7.53436 L 25,133.95935 29,136 c 3.85796,1.96818 6.326009,1.81431 4.527229,7.02032 -0.894434,2.58866 -0.328115,5.48023 -0.467089,5.49372 -1.347025,0.13077 -2.185608,-1.18316 -4.248108,-2.272 z M 61.75,141.93191 57.649123,140.21538 58,129.62798 V 119.30375 L 54,117.5 c -3.868592,-1.74449 -5.578947,-1.08583 -5.578947,-5.77468 0,-2.66647 1.796502,-5.72532 2.062403,-5.72532 0.265901,0 3.865901,1.67368 8,3.71929 L 67.22807,112.99997 66,128.71929 c -0.654598,8.37886 -0.1125,15.26082 -0.25,15.23651 -0.1375,-0.0243 -1.9375,-0.93505 -4,-2.02389 z M 29.645605,116.23154 c -5.322849,-1.38279 -5.358914,-2.5052 -5.358914,-7.53012 L 25,102.95935 29,105 c 16.064329,8.19542 4.311318,2.23606 4.139561,7.03583 -0.263615,7.3667 1.542361,5.50407 -3.493956,4.19571 z"
         id="path21"
         sodipodi:nodetypes="cccccccccsssscsssssssssssssscsssssscsscssssssssssssscsssssccccssssssssssscssssscssscssscssssccccssssscssssssscsssscsssssscsssscssssscsssscsss" />
      <path
         style="fill:#1e4720"
         d="m 119.32338,273.86988 c -3.56571,-1.8824 -3.12973,-2.03816 -3.12973,-6.76972 0,-2.73686 1.01608,-5.10016 1.27242,-5.10016 0.25634,0 3.23485,0.8824 5.17851,1.80926 3.39057,1.61685 2.35542,1.77677 2.35542,6.87595 0,2.92314 0.32169,5.54301 0.18419,5.5187 -0.1375,-0.0243 -3.79831,-1.24519 -5.86081,-2.33403 z M 175,250.02032 V 235.04065 L 179,233 l 4,-2.04065 v 15.33511 l 0.43419,16.32755 -3.96812,0.69278 c -2.12126,0.37034 -4.55001,3.54602 -4.80635,3.54602 -0.25634,0 0.34028,-8.60166 0.34028,-16.84049 z M 73.75,239.93791 66,235.97579 v -9.98789 c 0,-5.49335 -0.38528,-10.6702 -0.09807,-10.6702 0.287209,0 4.732478,2.48732 9.120269,4.69346 L 83,224.02232 v 9.98884 c 0,5.49386 -0.3375,9.96634 -0.75,9.93885 -0.4125,-0.0275 -4.2375,-1.83294 -8.5,-4.0121 z m 47,-7.006 c -3.56883,-1.88405 -3.75,-2.22108 -3.75,-6.97612 l -1.79878,-5.92684 8.27986,3.46727 c 3.99487,1.67289 1.51892,1.72126 1.51892,6.5241 0,2.73883 -0.1125,4.95979 -0.25,4.93548 -0.1375,-0.0243 -1.9375,-0.93505 -4,-2.02389 z M 259,228.70554 c 0,-5.12245 -0.97561,-5.58837 2.41745,-7.20641 1.94366,-0.92686 4.86014,-1.49913 5.11648,-1.49913 0.25634,0 0.83823,4.10166 0.83823,6.84049 0,4.80284 -0.5142,3.19133 -4.37216,5.15951 l -4,2.04065 z m 8,-14.52033 c 0,-4.52684 -1.89756,-4.66746 1.42502,-6.25189 1.94366,-0.92686 6.44183,-2.64663 6.69817,-2.64663 0.25634,0 0.32651,4.97336 0.32651,7.6215 0,4.52684 -0.66105,2.82217 -3.98363,4.4066 -1.94366,0.92686 -3.74366,1.68521 -4,1.68521 C 267.20973,219 267,216.83335 267,214.18521 Z M 78.75,201.93191 C 75.184293,200.04951 75,199.70767 75,194.97611 75,192.23925 75.209733,190 75.466073,190 c 0.25634,0 4.030024,1.4601 5.973684,2.38696 C 84.830324,194.00381 83,193.58603 83,198.68521 c 0,2.92314 -0.1125,5.2949 -0.25,5.27059 -0.1375,-0.0243 -1.9375,-0.93505 -4,-2.02389 z M 267,194.04065 c 0,-4.82656 -1.33483,-4.99074 2.63541,-6.73052 L 275,184.95935 l 0.24811,6.6127 C 275.42907,196.39522 274.86125,195.03014 271,197 l -4,2.04065 z m 0,-51 c 0,-4.82656 -1.6865,-5.55951 2.3873,-7.04065 L 275,133.95935 v 5 c 0,4.82656 0.86778,5.77404 -3.19365,7.28876 L 267,148.04065 Z"
         id="path20"
         sodipodi:nodetypes="sssssssscccccsssscssscssssscssssssssscssssssssssssssssscsscssscsscs" />
      <path
         style="fill:#501206"
         d="m 158,278.987 c 0,-4.95077 -1.47803,-5.36859 3.13541,-7.13723 L 167,269.60147 V 259.32106 249.04065 L 171,247 l 4,-2.04065 v 15.50917 15.50916 l -7.9778,4.01116 C 162.63441,282.19498 158.80941,284 158.5222,284 158.23499,284 158,281.74415 158,278.987 Z M 94.942982,261.91251 C 91.182361,261.13578 92,259.32317 92,254.29825 v -5.3389 L 96,251 c 3.85796,1.96818 4.15678,3.65963 4.17057,8.46245 0.0155,5.39735 -0.13166,3.5026 -5.227588,2.45006 z M 225,240.99271 c 0,-5.49599 -0.3375,-9.97676 -0.75,-9.95727 -0.4125,0.0195 -1.875,0.67854 -3.25,1.46456 -1.375,0.78602 -2.91243,1.22669 -3.25,1.46456 -3.25691,2.29503 -0.75,-6.70541 -0.75,-14.94424 V 204.04065 L 221,202 l 4,-2.04065 v 15.02033 c 0,8.26117 0.24293,15.02032 0.53984,15.02032 0.29691,0 2.32191,-0.90915 4.5,-2.02032 3.8605,-1.96948 3.96016,-2.15357 3.96016,-7.31479 0,-5.07592 0.14587,-5.36403 3.53393,-6.97968 1.94366,-0.92686 4.42596,-2.18143 4.6823,-2.18143 0.25634,0 -0.21623,2.73707 -0.21623,5.4759 0,4.80284 1.28458,5.17619 -2.57338,7.14437 -3.86125,1.96986 -5.42662,2.09004 -5.42662,6.9166 v 5 L 238,234 l 4,-2.04065 v 5.29747 5.29747 l -8.5,4.21556 -8.5,4.21557 z M 87.25,236.74095 c -4.195338,-2.10752 -5.682093,-0.30763 -5.083333,-5.49515 L 83,224.02599 l 6.166667,2.44943 C 93.808439,228.31915 92,228.40747 92,233.69927 c 0,2.9154 0.194518,4.87807 0.05702,4.84396 -0.1375,-0.0341 -2.469518,-0.62804 -4.807018,-1.80228 z m 79.75,-2.7003 c 0,-4.82656 -1.598,-4.94674 2.26325,-6.9166 l 5.73675,-2.1647 0.55824,6.17851 C 175.99256,235.94484 174.86125,235.03014 171,237 l -4,2.04065 z M 36.75,231.93191 33,229.95222 v -9.97611 c 0,-5.48686 -0.404302,-10.23927 -0.147962,-10.23927 0.25634,0 2.670375,1.02151 4.614035,1.94837 L 41,213.37042 v 10.31479 c 0,5.67314 -0.1125,10.2949 -0.25,10.27059 -0.1375,-0.0243 -1.9375,-0.93505 -4,-2.02389 z M 158,197.19927 c 0,-4.69921 0.0952,-4.84698 4.5,-6.98701 l 4.5,-2.18627 V 178.013 C 167,172.50585 166.75707,168 166.46016,168 c -0.29691,0 -2.32191,0.90915 -4.5,2.02032 L 158,172.04065 v -5.28885 -5.28885 l 12.5,-6.22641 12.5,-6.2264 v -4.99391 -4.99391 l 7.9778,-4.01116 c 4.38779,-2.20614 8.21279,-4.01116 8.5,-4.01116 0.28721,0 0.5222,11.37471 0.5222,25.27714 v 25.27715 l -8.5,4.21556 -8.5,4.21557 v -5.00571 c 0,-4.94213 0.0572,-5.03347 4.5,-7.19197 l 4.5,-2.18627 V 160.30073 C 192,151.88533 191.75707,145 191.46016,145 c -0.29691,0 -2.32191,0.90915 -4.5,2.02032 L 183,149.04065 V 164.5 179.95935 L 179,182 c -3.85614,1.96726 -4,2.21934 -4,7.00916 v 4.96852 l -7.9778,4.01116 C 162.63441,200.19498 158.80941,202 158.5222,202 158.23499,202 158,199.83967 158,197.19927 Z m -45.75,-9.45832 -4.25,-2.13498 v -10.28999 -10.28999 l 4.5,2.18627 4.5,2.18627 v 10.30074 c 0,5.6654 -0.1125,10.27281 -0.25,10.2387 -0.1375,-0.0341 -2.1625,-1.02278 -4.5,-2.19702 z m -51,-25.48633 -3.25,-1.61747 v -10.3389 -10.3389 L 62,142 l 4,2.04065 v 9.97967 c 0,5.48883 -0.3375,9.9509 -0.75,9.91573 -0.4125,-0.0352 -2.2125,-0.79182 -4,-1.68143 z M 242,139.68521 l -0.12405,-20.31479 3.65798,-1.68521 c 1.95578,-0.90101 4.42596,-2.24345 4.6823,-2.24345 0.25634,0 -0.21623,9.69989 -0.21623,20.87303 v 20.31479 l -3.53393,1.68521 c -1.94366,0.92686 -3.74366,1.68521 -4,1.68521 C 242.20973,160 242,150.85835 242,139.68521 Z M 36.75,149.88187 33,147.95222 V 127.4834 107.01458 l 8.5,4.21557 8.5,4.21556 v 15.27715 C 50,139.12529 49.757073,146 49.460162,146 c -0.296911,0 -2.298491,-0.8972 -4.447956,-1.99377 l -3.908119,-1.99378 -0.302043,4.89953 L 40.5,151.81151 Z"
         id="path19"
         sodipodi:nodetypes="sscccccccssssscsssssssscccssssssssscccccccssscsssssscsscsssssscssssscssscccccccssscccsscssscccsscsssssccccsssssccccsssscssscsssccccccsssccccc" />
      <path
         style="fill:#2f2611"
         d="m 175,270.70554 c 0,-5.12245 -0.47317,-5.75317 3.53393,-7.02033 2.05313,-0.64926 4.70857,-2.12381 4.96491,-2.12381 0.25634,0 -0.49884,2.67945 -0.49884,5.41828 0,4.80284 1.22426,5.53653 -2.82149,7.08235 L 175,276.04065 Z m 25,-23.05367 v -15.34812 l 4,-1.80375 4,-1.80375 v -9.84812 c 0,-5.41647 -0.3375,-9.83218 -0.75,-9.81269 -0.4125,0.0195 -1.875,0.67854 -3.25,1.46456 -3.74685,2.1419 -4,1.9211 -4,-3.48884 v -4.98884 l 7.9778,-4.01116 c 4.38779,-2.20614 9.20522,-5.06562 9.49243,-5.06562 C 217.75744,192.94554 217,205.25 217,219 c 0,13.75 0.3375,24.98405 0.75,24.96456 0.4125,-0.0195 3.19079,-0.9417 4.56579,-1.72772 C 226.06286,240.09482 225,240.5788 225,245.99229 v 4.99229 l -11.98462,6.00771 c -6.59155,3.30424 -12.83059,6.79718 -13.11404,6.79718 -0.28346,0 0.0987,-7.69613 0.0987,-16.1376 z M 84.618421,245.68832 c -4.113749,-2.06653 -1.925439,-0.22755 -1.925439,-4.87656 0,-2.64165 -0.195669,-5.94334 0.101242,-5.94334 0.296911,0 4.669379,2.05074 7.04386,2.63436 C 93.826419,238.48306 92,239.22583 92,244.02032 c 0,2.73883 0.238377,5.39036 0.100877,5.35625 -0.1375,-0.0341 -5.144956,-2.51401 -7.482456,-3.68825 z M 132.75,238.93791 125,234.97579 v -4.97673 -4.97674 l -7.9778,-4.01116 C 112.63441,218.80502 108.80941,217 108.5222,217 108.23499,217 108,219.025 108,221.5 c 0,2.475 -0.21756,4.5 -0.48346,4.5 -0.2659,0 -3.8659,-1.67368 -7.999996,-3.71929 L 92,218.56143 v -4.78072 c 0,-2.62939 -0.333941,-5.17545 -0.04521,-5.17545 0.28873,0 4.222672,1.96974 8.04521,3.89474 3.82254,1.925 7.18631,3.5 7.47504,3.5 0.28873,0 0.52496,-2.24672 0.52496,-4.99271 v -4.99271 l 8.5,4.21557 9.28947,4.21556 L 125,219.73015 v 5.28443 l 8.5,4.21557 8.93419,1.67246 L 142,238.22286 c -0.15557,2.62282 0.53088,5.37491 0.11838,5.34742 -0.4125,-0.0275 -5.10588,-2.45321 -9.36838,-4.63237 z M 242,237.02032 c 0,-4.80284 -0.95824,-5.29987 3.03509,-6.97646 L 250,227.95935 v -14.97967 c 0,-8.23883 -0.3375,-14.96373 -0.75,-14.94424 -0.4125,0.0195 -1.875,0.67854 -3.25,1.46456 -3.73294,2.13394 -5.1268,3.44106 -4.62027,-1.72647 L 242,191.44571 l 8.5,-4.21556 8.5,-4.21557 v 25.48155 25.48155 l -7.9778,4.01116 c -4.38779,2.20614 -9.08998,5.32695 -9.37719,5.32695 -0.28721,0 0.35499,-3.55664 0.35499,-6.29547 z M 86.75,205.93191 c -3.565707,-1.8824 -4.714912,-0.11898 -4.714912,-4.85054 0,-2.73686 1.07626,-7.60769 1.373171,-7.60769 0.296911,0 3.944718,1.87407 6.122807,2.98524 3.812897,1.9452 2.468934,1.76691 2.468934,6.5614 0,2.73883 0.451974,5.7054 0.03947,5.68109 -0.4125,-0.0243 -3.226974,-1.68066 -5.289474,-2.7695 z m 104.19554,-6.00774 C 190.12556,195.16777 192.13875,195.96986 196,194 l 4,-2.04065 v 5 c 0,4.82656 1.10179,5.50498 -2.75946,7.47484 L 192,206.04065 Z M 44.75,194.93191 c -3.563981,-1.88149 -5.043133,-1.17437 -4.478816,-5.85917 L 41,183.02232 33,179 25,174.97768 v -4.98884 c 0,-2.74386 -0.264901,-5.64673 0.001,-5.64673 0.265901,0 4.348357,2.33157 8.482456,4.37718 L 41,172.43857 v 5.29371 c 0,5.28347 2.303696,5.94922 6.794996,8.13126 4.404827,2.14003 2.639192,1.91564 2.639192,6.61485 0,2.6404 0.06567,4.99794 -0.346825,4.97363 -0.4125,-0.0243 -3.274863,-1.43127 -5.337363,-2.52011 z M 60.767544,193.8248 C 57.685306,192.35034 58,191.32317 58,186.29825 v -5.3389 l 5.491228,2.34767 C 67.473547,185.00958 66,185.21748 66,190.02032 c 0,5.49039 2.36459,7.43869 -5.232456,3.80448 z M 275,190.00733 c 0,-4.77936 -1.21523,-5.04288 2.59557,-6.98701 2.17809,-1.11117 5.56768,-2.02032 5.86459,-2.02032 0.29691,0 0.53984,3.95911 0.53984,6.59951 0,4.69921 -0.0952,3.0482 -4.5,5.18823 l -4.5,2.18627 z M 86.75,175.54595 c -3.563696,-1.88134 -4.97807,-1.96311 -4.97807,-6.67965 L 83,163.02599 l 6.561403,2.62487 C 94.108234,167.4698 92,167.50006 92,172.19927 c 0,2.6404 0.495833,5.65803 0.08333,5.63372 -0.4125,-0.0243 -3.270833,-1.1982 -5.333333,-2.28704 z m 120.54825,-3.60984 c 0,-4.69921 0.79695,-4.58382 5.20175,-6.72385 4.49668,-2.18465 3.71053,-2.36564 3.71053,-7.68949 0,-5.11406 0.93123,-5.21995 4.3234,-6.83756 1.94366,-0.92686 3.74366,-1.68521 4,-1.68521 0.25634,0 0.46607,2.24085 0.46607,4.97968 0,4.80284 -0.14204,5.05214 -4,7.02032 -3.85465,1.96649 -4,2.22086 -4,7 0,4.77082 0.9898,5.73791 -2.81981,7.68143 -2.17809,1.11117 -5.42683,1.11226 -5.64035,1.31857 -0.99866,0.96491 -1.24159,-2.42349 -1.24159,-5.06389 z M 267,163.18521 c 0,-4.52684 0.21135,-4.91557 3.53393,-6.5 1.94366,-0.92686 3.74366,-1.68521 4,-1.68521 0.25634,0 0.46607,2.16665 0.46607,4.81479 0,4.52684 0.84311,5.34976 -2.47947,6.93419 -1.94366,0.92686 -5.35636,2.24345 -5.6127,2.24345 -0.25634,0 0.0922,-3.15908 0.0922,-5.80722 z m -130.25,-4.2533 c -3.5637,-1.88134 -3.75,-2.22626 -3.75,-6.9428 v -4.96312 l 4.5,2.18627 c 4.40483,2.14003 4.5,2.2878 4.5,6.98701 0,2.6404 0.36425,5.35102 -0.0482,5.32671 -0.4125,-0.0243 -3.13925,-1.50523 -5.20175,-2.59407 z m -92.964912,-4.29825 c -3.563696,-1.88134 -3.99912,-3.14177 -3.399123,-7.81999 L 41,142.02599 l 4.850877,1.65995 c 4.633392,1.58554 4.763158,3.07728 4.763158,7.77649 0,2.6404 -0.951535,4.51768 -1.364035,4.49337 -0.4125,-0.0243 -3.402412,-0.2333 -5.464912,-1.32214 z M 112.25,146.74095 c -4.11375,-2.06653 -5.87281,-2.33281 -5.87281,-6.98182 0,-2.64165 0.0675,-6.86439 0.3644,-6.86439 0.29691,0 4.12016,3.01441 6.29825,4.12558 3.81289,1.9452 3.96016,2.20551 3.96016,7 0,2.73883 -0.1125,4.95176 -0.25,4.91765 -0.1375,-0.0341 -2.1625,-1.02278 -4.5,-2.19702 z M 73.75,137.93791 64.859649,134.32667 66,123.9879 C 66.602256,118.52766 66.23192,114 66.515377,114 c 0.283457,0 5.901537,2.7 12.484623,6 6.583086,3.3 12.201166,6 12.484623,6 C 91.76808,126 92,123.74498 92,120.98884 v -5.01116 l 8,4.02232 8,4.02232 v 4.98884 C 108,131.75502 107.76377,134 107.47504,134 107.18631,134 103.82254,132.425 100,130.5 96.177461,128.575 92.813694,127 92.524964,127 92.236234,127 92,129.025 92,131.5 c 0,2.475 -0.242927,4.5 -0.539838,4.5 -0.296911,0 -2.321911,-0.90915 -4.5,-2.02032 L 83,131.95935 v 5.02033 c 0,2.76117 0.802851,5.61186 0.390351,5.58437 -0.4125,-0.0275 -5.377851,-2.44698 -9.640351,-4.62614 z M 192,119.04065 c 0,-4.82656 -1.10999,-5.85866 2.97656,-7.30426 L 200,109.95935 v 5 c 0,4.82656 0.8631,5.29322 -3.12281,6.99679 L 192,124.04065 Z M 36.75,108.94001 25,102.98372 v -4.999567 -4.999569 l 11.984623,6.007708 c 6.591543,3.304238 12.041104,5.700688 12.324561,5.700688 0.283457,0 0.690816,-1.948 0.690816,-4.704141 v -5.01116 L 58,99 l 8,4.02232 v 4.98884 c 0,2.74386 0.377801,5.0327 0.08907,5.0327 C 65.800341,113.04386 61.822539,111.425 58,109.5 54.177461,107.575 50.813694,106 50.524964,106 50.236234,106 50,108.025 50,110.5 c 0,2.475 -0.3375,4.47667 -0.75,4.44815 -0.4125,-0.0285 -6.0375,-2.73219 -12.5,-6.00814 z"
         id="path18"
         sodipodi:nodetypes="ssssscsscccsssscsssssscssssssssssssccssssscssssscccccccssssscsssscccccssssssssssssssscssssccssscsssssssssssssssscsssssssssssssssssssssssssssssssssssssssssssscsssssccsscccssssssscsssssccccsscccssscccssssssscccs" />
      <path
         style="fill:#231a0c"
         d="m 217,239.18521 c 0,-4.52684 -1.5869,-5.13487 1.73568,-6.7193 1.94366,-0.92686 5.54191,-1.46591 5.79825,-1.46591 0.25634,0 0.46607,2.16665 0.46607,4.81479 0,4.52684 0.97286,5.88048 -2.34972,7.46491 C 220.70662,244.20656 217.72241,244 217.46607,244 217.20973,244 217,241.83335 217,239.18521 Z M 101.17209,234.75084 C 98.178865,233.26115 100,232.25646 100,227.81857 c 0,-2.65021 -0.534593,-5.811 -0.278253,-5.811 0.25634,0 3.358903,1.19254 5.302563,2.1194 3.32258,1.58443 2.0763,2.74849 3.56494,7.21331 1.68174,5.04394 -2.769,5.72387 -7.41716,3.41056 z M 175,230.00916 v -5.03148 l -7.9778,4.01116 c -4.38779,2.20614 -9.08117,4.63143 -9.36838,4.63143 -0.28721,0 0.34618,-2.86822 0.34618,-5.61572 V 223.0091 L 179,212.5 200,201.9909 v 5.28169 5.2817 l -8.5,4.21556 -8.5,4.21557 0.43419,6.10345 C 183.7756,231.8881 182.85914,231.03121 179,233 l -4,2.04065 z m -42.25,-1.07125 -7.75,-3.96212 v -4.98789 c 0,-2.74335 0.23499,-4.9879 0.5222,-4.9879 0.28721,0 4.11221,1.80502 8.5,4.01116 L 142,223.02232 v 4.98884 c 0,2.74386 -0.3375,4.96634 -0.75,4.93885 -0.4125,-0.0275 -4.2375,-1.83294 -8.5,-4.0121 z M 99.25,212.22207 92,208.56302 v -5.29267 -5.29267 l 8,4.02232 8,4.02232 v 4.98884 c 0,2.74386 -0.3375,4.96209 -0.75,4.9294 -0.4125,-0.0327 -4.0125,-1.70601 -8,-3.71849 z M 234,210.5 c 0,-2.475 -0.24293,-4.5 -0.53984,-4.5 -0.29691,0 -2.32191,0.90915 -4.5,2.02032 L 225,210.04065 V 205 199.95935 L 221,202 l -4,2.04065 v -5.27849 -5.27848 l 28.50458,-14.24184 c 15.67751,-7.83301 29.40981,-14.42792 29.6823,-14.42792 0.27248,0 -0.18688,4.68106 -0.18688,10.17492 v 9.98884 L 267,189 l -8,4.02232 v -5.00387 -5.00387 l -8.5,4.21557 -8.5,4.21556 v 10.09193 10.09194 l -3.53393,1.68521 c -1.94366,0.92686 -4.05379,4.41439 -4.31013,4.41439 C 233.8996,217.72918 234,212.975 234,210.5 Z m -59,-21.45935 c 0,-4.82656 0.13875,-5.07079 4,-7.04065 l 4.96491,-3.09328 0.0877,6.40351 c 0.0635,4.63655 0.1109,5.66582 -4,7.04065 L 175,194.04065 Z M 48.75,186.93791 41,182.97579 v -4.98789 c 0,-2.74335 -0.642204,-5.82123 -0.354996,-5.82123 0.287209,0 4.989402,2.63835 9.377193,4.84449 L 58,181.02232 v 4.98884 c 0,2.74386 1.109868,5.79967 0.697368,5.77218 -0.4125,-0.0275 -5.684868,-2.66627 -9.947368,-4.84543 z M 217,168.04065 c -0.0804,-4.82589 -0.0828,-6.19854 4,-7.65469 l 3.91228,-2.56696 0.0877,6.14035 c 0.0689,4.82607 0.86873,6.18863 -3.21053,7.65469 l -4.70175,1.68977 z m -59,-17.03852 v -9.99787 L 204,118 250,94.995744 v 10.316916 10.31692 l -3.53393,1.68521 c -1.94366,0.92686 -3.74366,1.68521 -4,1.68521 C 242.20973,119 242,116.975 242,114.5 c 0,-2.475 -0.23499,-4.5 -0.5222,-4.5 -0.28721,0 -4.11221,1.80502 -8.5,4.01116 L 225,118.02232 v 4.96852 c 0,4.78982 -0.14386,5.0419 -4,7.00916 l -4,2.04065 v 10.28041 l 1.40351,10.98216 -5.90351,1.48452 -4.5,3.50206 v -6.32312 -5.00733 L 204,149 l -4,2.04065 V 141.02032 C 200,135.50915 199.76501,131 199.4778,131 c -0.28721,0 -4.11221,1.80502 -8.5,4.01116 L 183,139.02232 v 4.98113 4.98113 l -11.98462,6.00771 c -6.59155,3.30424 -13.20898,7.49636 -13.49243,7.49636 -0.28346,0 0.47705,-5.98769 0.47705,-11.48652 z M 78.25,150.25462 C 75.256765,148.76493 75,148.25646 75,143.81857 c 0,-2.65021 -0.316583,-5.69576 -0.06024,-5.69576 0.25634,0 4.073884,1.72326 6.017544,2.65012 C 84.279883,142.35736 83,142.65837 83,147.18521 c 0,5.31692 -0.101836,5.38272 -4.75,3.06941 z m 58.5,-1.32271 c -3.56571,-1.8824 -3.75,-2.22424 -3.75,-6.9558 0,-2.73686 0.24293,-4.97611 0.53984,-4.97611 0.29691,0 2.32191,0.90915 4.5,2.02032 3.81289,1.9452 3.96016,2.20551 3.96016,7 0,2.73883 0.62741,7.50365 0.21491,7.47934 -0.4125,-0.0243 -3.40241,-3.47891 -5.46491,-4.56775 z M 110.14109,136.05865 C 105.94575,133.95113 108,134.53794 108,129.31598 v -5.28999 l 4.5,2.18627 c 4.49241,2.18258 6.25439,2.06363 6.25439,7.35543 0,2.9154 -1.51601,6.8079 -1.65351,6.77379 -0.1375,-0.0341 -4.62229,-3.10859 -6.95979,-4.28283 z M 78.25,119.71091 66,113.53762 v -5.27597 -5.27596 l 13,6.51431 13,6.51431 v 4.99285 c 0,2.74606 -0.3375,4.96679 -0.75,4.93494 -0.4125,-0.0318 -6.2625,-2.83587 -13,-6.23119 z M 267,96.705536 V 86.370425 l 3.53393,-1.685213 C 272.47759,83.758346 274.27759,83 274.53393,83 274.79027,83 275,87.490854 275,92.979676 v 9.979674 L 271,105 l -4,2.04065 z M 36.75,98.940007 25,92.983722 v -4.991861 c 0,-2.745523 -0.264295,-5.798211 0.01916,-5.798211 0.283457,0 6.404672,3.509819 12.996215,6.814058 L 50,95.015416 v 4.992294 c 0,2.74576 -0.3375,4.96896 -0.75,4.94044 -0.4125,-0.0285 -6.0375,-2.73219 -12.5,-6.008143 z"
         id="path17"
         sodipodi:nodetypes="sssssssssssssccssscccccccssccscssscsssscccccsssssscccccccssscccccccccssssscsscsscssscssssscsscsscccccssssscsscccccccccssscccsssssssssssssssssscssssscccccscsccsssccccscssscsss" />
    </g>
  </g>
</svg>
